<?xml version="1.0" encoding="UTF-8"?>
<svg xmlns="http://www.w3.org/2000/svg" viewBox="0 0 1500 900">
  <defs>
    <style>
      .cls-1 {
        fill: #5c614f;
      }

      .cls-2 {
        fill: #838e65;
      }
    </style>
  </defs>
  <g id="Layer_1" data-name="Layer 1">
    <rect class="cls-1" width="1500" height="450"/>
    <rect class="cls-2" y="450" width="1500" height="450"/>
  </g>
  <g id="Layer_4" data-name="Layer 4">
    <rect class="cls-1" x="299" y="450" width="902" height="320.01"/>
    <rect class="cls-2" x="299" y="129.99" width="902" height="320.01"/>
  </g>
  <g id="Layer_5" data-name="Layer 5">
    <polygon points="467.76 257.03 489.21 323.01 558.58 323.02 502.46 363.8 523.89 429.78 467.76 389 411.63 429.78 433.07 363.8 376.94 323.02 446.32 323.01 467.76 257.03"/>
    <polygon points="654.85 257.03 676.29 323.01 745.67 323.02 689.54 363.8 710.98 429.78 654.85 389 598.72 429.78 620.15 363.8 564.03 323.02 633.41 323.01 654.85 257.03"/>
    <polygon points="842.03 257.03 863.47 323.01 932.85 323.02 876.72 363.8 898.16 429.78 842.03 389 785.9 429.78 807.34 363.8 751.21 323.02 820.59 323.01 842.03 257.03"/>
    <polygon points="1029 257.03 1050.45 323.01 1119.82 323.02 1063.7 363.8 1085.13 429.78 1029 389 972.88 429.78 994.31 363.8 938.19 323.02 1007.56 323.01 1029 257.03"/>
    <polygon points="467.87 470.03 489.32 536.01 558.69 536.02 502.57 576.8 524 642.78 467.87 602 411.74 642.78 433.18 576.8 377.05 536.02 446.43 536.01 467.87 470.03"/>
    <polygon points="654.96 470.03 676.4 536.01 745.78 536.02 689.65 576.8 711.09 642.78 654.96 602 598.83 642.78 620.26 576.8 564.14 536.02 633.52 536.01 654.96 470.03"/>
    <polygon points="842.14 470.03 863.58 536.01 932.96 536.02 876.83 576.8 898.27 642.78 842.14 602 786.01 642.78 807.45 576.8 751.32 536.02 820.7 536.01 842.14 470.03"/>
    <polygon points="1029.11 470.03 1050.56 536.01 1119.93 536.02 1063.81 576.8 1085.24 642.78 1029.11 602 972.99 642.78 994.42 576.8 938.3 536.02 1007.67 536.01 1029.11 470.03"/>
  </g>
  <g id="Layer_3" data-name="Layer 3">
    <rect x="299" y="129.99" width="138" height="46"/>
    <rect x="299" y="724.99" width="138" height="46"/>
    <rect x="299" y="175.99" width="45.99" height="549"/>
    <rect x="1063" y="129.99" width="138" height="46" transform="translate(2264 305.98) rotate(180)"/>
    <rect x="1063" y="724.99" width="138" height="46" transform="translate(2264 1495.98) rotate(180)"/>
    <rect x="1155.01" y="175.99" width="45.99" height="549" transform="translate(2356.01 900.98) rotate(180)"/>
  </g>
</svg>